<?xml version="1.0" encoding="utf-8"?>
<!-- Generator: Adobe Illustrator 25.0.0, SVG Export Plug-In . SVG Version: 6.00 Build 0)  -->
<svg version="1.1" id="Calque_1" xmlns="http://www.w3.org/2000/svg" xmlns:xlink="http://www.w3.org/1999/xlink" x="0px" y="0px"
	 viewBox="0 0 100 100" style="enable-background:new 0 0 100 100;" xml:space="preserve">
<style type="text/css">
	.st0{opacity:0.5;}
	.st1{fill:#FFFFFF;}
	.st2{fill:#EF7D00;}
	.st3{clip-path:url(#SVGID_2_);fill:#F6A758;}
	.st4{clip-path:url(#SVGID_2_);fill:#EF7D00;}
	.st5{clip-path:url(#SVGID_4_);fill:#EF7D00;}
</style>
<g class="st0">
	<path class="st2" d="M23.8,24.45c0.83-0.9,2.05-1.41,3.28-1.39c15.28,0,30.55,0,45.83,0c1.07-0.02,2.15,0.37,2.95,1.08
		c0.89,0.75,1.43,1.86,1.53,3.01v3.21c-1.32,0.1-2.51,0.74-3.66,1.36c0.01-1.22,0.01-2.43,0-3.65c-0.01-0.76-0.73-1.4-1.49-1.35
		c-14.84,0-29.68,0-44.53,0c-0.68-0.03-1.34,0.47-1.46,1.15c-0.06,0.42-0.02,0.85-0.03,1.28c0,9.74,0,19.48,0,29.21
		c0.01,0.48-0.07,0.99,0.18,1.42c0.25,0.47,0.78,0.75,1.31,0.74c5.39,0,10.78,0.01,16.17,0c-0.28,0.47-0.57,0.94-0.82,1.43
		c-1.67,0.46-3.24,1.23-4.67,2.21c-3.77,0.05-7.55,0.01-11.32,0.02c-1.58,0.05-3.13-0.84-3.91-2.21c-0.33-0.56-0.5-1.19-0.59-1.83
		V27.24C22.66,26.21,23.08,25.19,23.8,24.45"/>
	<path class="st2" d="M39.08,65.94c-1.14,0.9-2.04,2.06-2.85,3.25c0.67,0.26,1.39,0.37,2.11,0.42c2.13,0.18,4.22-0.57,6.09-1.53
		c0.88-1.42,1.06-3.14,1-4.78C43.14,63.61,40.9,64.5,39.08,65.94 M74.65,32.26c0.86-0.46,1.77-0.91,2.75-0.99v0.28
		c-0.41,1.77-1.41,3.33-2.35,4.86c-2.42,3.72-5.21,7.17-8.12,10.51c-3.71,4.2-7.63,8.23-11.86,11.91c-1.95,1.68-3.96,3.29-6.13,4.68
		c-0.85,0.54-1.72,1.05-2.63,1.47c-0.1,1.23-0.45,2.44-1.05,3.52c-0.68,1.23-1.58,2.32-2.53,3.35c-0.69,0.73-1.38,1.5-2.22,2.06
		c-1.81,1.24-4.01,1.69-6.16,1.91c-0.8,0.09-1.61,0.13-2.42,0.12c0.49,0.07,0.97,0.1,1.46,0.09c6.75,0,13.5,0,20.24,0
		c0.01,0.3,0,0.61-0.01,0.92c-10.35-0.01-20.7,0-31.05,0v-0.91c1.75,0,3.5,0,5.24,0c0.16,0,0.32-0.02,0.48-0.06
		c1.13-0.31,2.2-0.86,3.08-1.64c1.84-1.64,2.86-3.93,4.26-5.92c0.88-1.27,1.89-2.47,3.13-3.4c1.4-1.04,3.01-1.8,4.69-2.25
		c0.14-0.03,0.28-0.09,0.33-0.24c0.65-1.29,1.47-2.49,2.33-3.65c2.05-2.74,4.32-5.3,6.65-7.8c4.97-5.32,10.23-10.38,15.99-14.85
		C70.65,34.79,72.57,33.4,74.65,32.26"/>
	<path class="st2" d="M73.76,39.93c1.31-1.88,2.63-3.76,3.64-5.82v26.06c-0.11,0.67-0.3,1.33-0.67,1.9
		c-0.76,1.24-2.16,2.05-3.62,2.09c-4.05,0-8.11,0-12.16,0c0.01,1.16,0.41,2.3,1.1,3.23c1.02,1.37,2.49,2.34,4.03,3.03
		c0.39,0.21,0.84,0.12,1.26,0.14c0.01,0.3,0,0.61-0.01,0.92c-7.68-0.01-15.36,0-23.04,0c1.42-1.68,2.61-3.66,2.87-5.88
		c2.66-1.36,5.03-3.19,7.33-5.08c5.71,0,11.42,0,17.12,0c0.5-0.01,1.06,0.06,1.49-0.24c0.42-0.27,0.65-0.77,0.63-1.27
		C73.75,52.64,73.73,46.28,73.76,39.93"/>
</g>
</svg>
