<?xml version="1.0" encoding="utf-8"?>
<!-- Generator: Adobe Illustrator 25.0.0, SVG Export Plug-In . SVG Version: 6.00 Build 0)  -->
<svg version="1.1" id="Calque_1" xmlns="http://www.w3.org/2000/svg" xmlns:xlink="http://www.w3.org/1999/xlink" x="0px" y="0px"
	 viewBox="0 0 100 100" style="enable-background:new 0 0 100 100;" xml:space="preserve">
<style type="text/css">
	.st0{opacity:0.5;}
	.st1{fill:#FFFFFF;}
	.st2{fill:#EF7D00;}
	.st3{clip-path:url(#SVGID_2_);fill:#F6A758;}
	.st4{clip-path:url(#SVGID_2_);fill:#EF7D00;}
	.st5{clip-path:url(#SVGID_4_);fill:#EF7D00;}
</style>
<g class="st0">
	<g>
		<path class="st2" d="M45.68,19.13h0.05c0.25,0.42,0.59,0.77,0.84,1.19c1.48,2.13,2.28,4.77,2.06,7.37
			c-0.11,1.65-0.48,3.46-1.74,4.64c-0.82,0-1.63,0.02-2.45,0c-0.33-0.22-0.57-0.55-0.8-0.86c-1.02-1.57-1.26-3.56-0.94-5.38
			c0.24-1.42,0.93-2.7,1.68-3.91C44.96,21.24,45.59,20.26,45.68,19.13"/>
		<path class="st2" d="M44.6,33.35c0.68,0,1.35,0,2.03,0c0.67,4.07,1.38,8.13,2.02,12.2c-2.02-0.01-4.04-0.01-6.05,0
			c0-0.16,0.02-0.32,0.05-0.47C43.3,41.17,43.95,37.26,44.6,33.35"/>
		<path class="st2" d="M61.03,60.87c-1.59,0.31-2.9,1.67-3.16,3.26c-0.28,1.5,0.36,3.12,1.61,4c1.21,0.9,2.93,1.04,4.26,0.32
			c1.32-0.68,2.21-2.12,2.19-3.61c0.01-1.4-0.76-2.77-1.97-3.48C63.1,60.83,62.03,60.66,61.03,60.87 M67.18,48.67
			c-0.68,0.13-1.33,0.44-1.85,0.89c-1.22,1.02-1.73,2.78-1.24,4.29c0.41,1.4,1.65,2.51,3.08,2.78c1.67,0.36,3.51-0.48,4.33-1.97
			c0.92-1.57,0.61-3.73-0.74-4.95C69.84,48.81,68.45,48.41,67.18,48.67 M59.02,38.51c-1.58,0.31-2.89,1.65-3.17,3.23
			c-0.25,1.3,0.19,2.71,1.14,3.64c1.31,1.34,3.58,1.56,5.12,0.49c1.59-1.02,2.25-3.22,1.49-4.95C62.88,39.17,60.86,38.1,59.02,38.51
			 M52.53,35.92c1.81-1.32,4.13-1.63,6.32-1.53c3.69,0.17,7.25,1.62,10.19,3.82c4.68,3.49,7.85,8.88,8.77,14.63
			c0.39,2.51,0.52,5.13-0.18,7.6c-0.95,3.54-3.34,6.58-6.34,8.63c-2.6,1.8-5.64,2.9-8.74,3.44c-2.36,0.41-4.77,0.55-7.16,0.37
			c-2.26-0.17-4.47-0.72-6.63-1.38c0.08-1.3,0.22-2.59,0.33-3.89c0.92-0.34,1.71-1.03,2.16-1.9c0.62-1.15,0.63-2.62,0.01-3.77
			c-0.39-0.76-1.04-1.36-1.79-1.75c0.05-1.5,0.09-3,0.13-4.5l0.04-0.05c1.43-0.18,2.88-0.64,3.97-1.63c0.7-0.63,1.21-1.54,1.15-2.5
			c-0.03-0.97-0.62-1.83-1.35-2.43c-1.05-0.85-2.38-1.3-3.71-1.44c-0.05-1.01,0.08-2.03-0.15-3.02c-0.17-1.19-0.44-2.37-0.56-3.56
			C49.8,39.15,50.79,37.17,52.53,35.92"/>
		<path class="st2" d="M35.64,48.68c-0.73,0.15-1.42,0.51-1.96,1.03c-1.34,1.23-1.67,3.39-0.74,4.95c0.93,1.71,3.18,2.53,4.99,1.79
			c1.93-0.69,3.07-2.97,2.44-4.92C39.85,49.53,37.65,48.21,35.64,48.68 M33.84,44c2.63-0.2,5.27,0.17,7.81,0.8
			c-0.14,0.84-0.09,1.7-0.1,2.55c0.03,7.07,0.14,14.14,0.69,21.19c-3.05-1.73-5.86-3.91-8.27-6.47c-2.62-2.82-4.87-6.21-5.5-10.08
			c-0.28-1.95-0.19-4.13,0.99-5.79C30.46,44.8,32.19,44.15,33.84,44"/>
		<path class="st2" d="M42.57,46.56c2.03,0,4.06,0,6.09,0c0,7.05-0.12,14.1-0.62,21.13c-0.26,3.16-0.54,6.34-1.23,9.44
			c-0.26,1.02-0.48,2.11-1.14,2.96h-0.09c-0.26-0.27-0.43-0.6-0.57-0.94c-0.39-0.97-0.61-2-0.81-3.02
			c-0.65-3.49-0.93-7.03-1.16-10.56C42.67,59.24,42.57,52.9,42.57,46.56"/>
	</g>
</g>
</svg>
