<?xml version="1.0" encoding="utf-8"?>
<!-- Generator: Adobe Illustrator 25.0.0, SVG Export Plug-In . SVG Version: 6.00 Build 0)  -->
<svg version="1.1" id="Calque_1" xmlns="http://www.w3.org/2000/svg" xmlns:xlink="http://www.w3.org/1999/xlink" x="0px" y="0px"
	 viewBox="0 0 100 100" style="enable-background:new 0 0 100 100;" xml:space="preserve">
<style type="text/css">
	.st0{opacity:0.5;}
	.st1{fill:#FFFFFF;}
	.st2{fill:#EF7D00;}
	.st3{clip-path:url(#SVGID_2_);fill:#F6A758;}
	.st4{clip-path:url(#SVGID_2_);fill:#EF7D00;}
	.st5{clip-path:url(#SVGID_4_);fill:#EF7D00;}
</style>
<g class="st0">
	<g>
		<path class="st2" d="M50.39,29.07H67.3c0.15,0,0.3,0.02,0.45,0.05c0.26,0.07,0.53,0.15,0.79,0.23c0.8,0.36,1.49,0.95,1.96,1.69
			c0.14,0.26,0.25,0.52,0.38,0.78c0.2,0.76,0.27,1.57,0.09,2.34c-0.03,0.13-0.06,0.27-0.08,0.4c-0.13,0.26-0.27,0.52-0.4,0.77
			c-0.38,0.57-0.87,1.06-1.43,1.44c-0.18,0.08-0.35,0.17-0.53,0.26c-0.3,0.1-0.61,0.15-0.91,0.27c-1.19,0.09-2.38-0.01-3.57,0.03
			c-1.24,0.05-2.49-0.03-3.73,0c-1.55,0.06-3.1-0.04-4.65,0.02c-1.76-0.02-3.53-0.03-5.29,0.02c0-0.7,0-1.41,0-2.11h-6.2
			c-0.01-0.28-0.03-0.55-0.06-0.82c-0.15-0.87-0.44-1.73-0.94-2.46c-0.19-0.3-0.43-0.57-0.65-0.85c2.61,0,5.23,0,7.84,0
			C50.39,30.45,50.39,29.76,50.39,29.07"/>
		<path class="st2" d="M21.48,60.05h28.91V47.66H21.48V60.05z M20.76,31.15c5.98-0.02,11.97-0.02,17.95,0
			c0.29,0.12,0.61,0.17,0.91,0.27c1.37,0.6,2.4,1.95,2.5,3.46c0,1.51,0,3.01,0,4.52c4.37,0.01,8.74-0.02,13.11,0.01
			c0.29,0.12,0.61,0.17,0.91,0.27c0.99,0.43,1.77,1.24,2.21,2.22c0.12,0.45,0.31,0.9,0.29,1.37v20.65c-0.01,0.37,0.03,0.74-0.05,1.1
			c-0.07,0.26-0.15,0.52-0.23,0.78c-0.43,0.98-1.23,1.78-2.21,2.21c-0.45,0.12-0.9,0.31-1.37,0.29c-11.19,0-22.37,0-33.56,0
			c-0.48,0.02-0.92-0.16-1.37-0.29c-0.84-0.39-1.59-1.02-2.02-1.85c-0.06-0.13-0.12-0.25-0.19-0.37c-0.13-0.4-0.22-0.82-0.29-1.24
			c0-9.81,0-19.62,0-29.42c-0.05-0.52,0.15-1.01,0.29-1.51c0.42-0.93,1.16-1.73,2.1-2.15C20.05,31.32,20.43,31.29,20.76,31.15"/>
		<path class="st2" d="M75.17,45.59c2.74-1.4,5.51-2.76,8.26-4.14c0.01,8.28-0.01,16.55,0.01,24.83c-2.76-1.39-5.52-2.75-8.27-4.15
			c0.01-0.69,0-1.38,0-2.07H62.78V47.66h12.39C75.17,46.97,75.18,46.28,75.17,45.59"/>
	</g>
</g>
</svg>
