<?xml version="1.0" encoding="utf-8"?>
<!-- Generator: Adobe Illustrator 25.0.0, SVG Export Plug-In . SVG Version: 6.00 Build 0)  -->
<svg version="1.1" id="Calque_1" xmlns="http://www.w3.org/2000/svg" xmlns:xlink="http://www.w3.org/1999/xlink" x="0px" y="0px"
	 viewBox="0 0 300 300" style="enable-background:new 0 0 300 300;" xml:space="preserve">
<style type="text/css">
	.st0{fill:#F39200;}
</style>
<g>
	<path class="st0" d="M150.08,1.66C68.16,1.66,1.74,68.08,1.74,150s66.41,148.34,148.34,148.34S298.41,231.92,298.41,150
		S232,1.66,150.08,1.66z M191.46,91.76c0,0-13.99,0-19.54,0c-6.9,0-8.34,2.82-8.34,9.96c0,5.94,0,17.24,0,17.24h27.88l-2.69,30.28
		h-25.19v90.42h-36.11v-90.04h-18.78v-30.65h18.78c0,0,0-4.41,0-24.14c0-22.65,12.11-34.48,38.98-34.48c4.4,0,25,0,25,0V91.76z"/>
</g>
</svg>
