<?xml version="1.0" encoding="utf-8"?>
<!-- Generator: Adobe Illustrator 25.0.0, SVG Export Plug-In . SVG Version: 6.00 Build 0)  -->
<svg version="1.1" id="Calque_1" xmlns="http://www.w3.org/2000/svg" xmlns:xlink="http://www.w3.org/1999/xlink" x="0px" y="0px"
	 viewBox="0 0 100 100" style="enable-background:new 0 0 100 100;" xml:space="preserve">
<style type="text/css">
	.st0{opacity:0.5;}
	.st1{fill:#FFFFFF;}
	.st2{fill:#EF7D00;}
	.st3{clip-path:url(#SVGID_2_);fill:#F6A758;}
	.st4{clip-path:url(#SVGID_2_);fill:#EF7D00;}
	.st5{clip-path:url(#SVGID_4_);fill:#EF7D00;}
</style>
<g class="st0">
	<path class="st2" d="M25.46,39.97c0.84,0.26,1.79,0.16,2.56-0.27c1.03-0.54,1.71-1.66,1.73-2.82c0.04-1.02-0.43-2.04-1.22-2.68
		c-0.74-0.61-1.74-0.87-2.68-0.7c-0.96,0.16-1.83,0.78-2.31,1.62c-0.48,0.83-0.57,1.88-0.24,2.79
		C23.64,38.89,24.47,39.67,25.46,39.97"/>
	<path class="st2" d="M26.44,46.7c0.29-0.45,0.58-0.89,0.87-1.34c-0.13-1.08-0.26-2.16-0.39-3.24c-0.1-0.38,0.17-0.7,0.29-1.04
		c-0.08-0.08-0.17-0.17-0.26-0.25c-0.35,0.06-0.71,0.05-1.06,0c-0.08,0.08-0.17,0.16-0.25,0.24c0.1,0.26,0.26,0.51,0.31,0.79
		c-0.12,1.16-0.28,2.31-0.4,3.47C25.81,45.82,26.15,46.25,26.44,46.7"/>
	<path class="st2" d="M19.33,55.81c0.53,0.38,1.27,0.45,1.87,0.17c0.65-0.29,1.08-0.99,1.09-1.7c0.03-1.66,0.05-3.32,0.1-4.97
		c0.13-0.67,0.36-1.32,0.53-1.98c0.32,0.51,0.53,1.11,0.5,1.72c-0.04,1.77-0.06,3.54-0.1,5.31c-0.02,1.08-0.71,2.08-1.67,2.55
		c0,2.77,0,5.55,0,8.32c0,0.22,0.02,0.43,0.03,0.65c-0.06,0.41-0.02,0.83-0.03,1.25c0.93-1.36,2.24-2.46,3.75-3.12
		c0-0.34,0-0.68,0-1.01c-0.63-0.75-1.03-1.7-1.08-2.68c-0.09-1.27,0.4-2.56,1.29-3.47c0.87-0.91,2.13-1.42,3.39-1.38
		c0.78,0.01,1.54,0.25,2.21,0.63c0-1.4-0.01-2.81,0-4.21c0.15-2.08,0.32-4.15,0.47-6.23c0.85,0.36,1.7,0.73,2.56,1.09
		c0.27,0.12,0.57,0.17,0.87,0.17c1.72,0.03,3.43,0.06,5.15,0.09c0.66,0.03,1.32-0.34,1.66-0.91c0.38-0.61,0.36-1.45-0.06-2.04
		c-0.33-0.49-0.91-0.8-1.51-0.81c-1.45-0.03-2.9-0.06-4.35-0.08c-0.26-0.01-0.55,0.02-0.79-0.09c-1.08-0.46-2.16-0.92-3.24-1.38
		c-0.32-0.13-0.63-0.29-0.97-0.34c-0.75-0.13-1.5-0.27-2.25-0.4c-0.22,1.39-0.45,2.77-0.67,4.15c-0.02,0.17-0.12,0.31-0.22,0.45
		c-0.48,0.67-0.95,1.35-1.43,2.03c-0.49-0.7-0.98-1.39-1.47-2.09c-0.09-0.12-0.16-0.25-0.18-0.4c-0.22-1.38-0.45-2.76-0.67-4.15
		c-0.79,0.15-1.58,0.28-2.37,0.43c-0.67,0.13-1.24,0.66-1.42,1.31c-0.53,1.88-1.05,3.76-1.58,5.63c-0.07,0.23-0.1,0.47-0.1,0.71
		c-0.03,1.72-0.06,3.45-0.1,5.17v0.05C18.53,54.87,18.83,55.46,19.33,55.81"/>
	<path class="st2" d="M30.89,57.39c-0.7-0.54-1.63-0.77-2.51-0.64c-1.17,0.16-2.22,1.01-2.62,2.13c-0.37,0.97-0.25,2.11,0.32,2.98
		c0.52,0.8,1.39,1.36,2.34,1.49c0.9,0.13,1.85-0.14,2.56-0.72C31.76,62,32.23,61,32.21,60C32.21,58.99,31.7,57.99,30.89,57.39"/>
	<path class="st2" d="M47.93,57.24c-0.69-0.45-1.56-0.63-2.38-0.48c-1.14,0.19-2.15,1.02-2.55,2.11c-0.41,1.06-0.22,2.33,0.49,3.22
		c0.56,0.72,1.42,1.19,2.32,1.27c0.97,0.09,1.97-0.27,2.65-0.96c0.71-0.7,1.08-1.74,0.96-2.73C49.33,58.69,48.76,57.77,47.93,57.24"
		/>
	<path class="st2" d="M65.33,57.35c-0.7-0.51-1.6-0.73-2.46-0.6c-1.14,0.17-2.15,0.97-2.58,2.03c-0.37,0.9-0.32,1.95,0.14,2.81
		c0.49,0.95,1.48,1.63,2.55,1.75c1.07,0.14,2.19-0.29,2.9-1.11c0.64-0.71,0.93-1.71,0.8-2.65C66.55,58.7,66.06,57.87,65.33,57.35"/>
	<path class="st2" d="M58.89,71.11c0.17-0.82,0.57-1.59,1.14-2.2c0.01,1.47,0,2.93,0.01,4.39h-0.11c-0.38,0-0.76,0-1.14,0
		C58.82,72.57,58.73,71.83,58.89,71.11 M49.46,73.3c0-1.46,0-2.93,0-4.39c0.72,0.77,1.17,1.79,1.23,2.84c0.02,0.52,0,1.04,0.01,1.55
		C50.29,73.3,49.88,73.3,49.46,73.3 M41.55,71.92c0.02-1.11,0.47-2.2,1.23-3c0.02,1.46,0,2.93,0.01,4.39c-0.38,0-0.76,0-1.14,0
		h-0.11C41.56,72.84,41.55,72.38,41.55,71.92 M66.71,68.9c0.72,0.78,1.18,1.8,1.23,2.85c0.02,0.52,0.01,1.03,0.01,1.55h-0.18
		c-0.35,0-0.71,0-1.06,0C66.71,71.84,66.71,70.37,66.71,68.9 M24.31,71.84c0.04-1.08,0.49-2.14,1.23-2.93
		c0.01,1.46-0.01,2.93,0.01,4.39h-0.1c-0.35,0-0.7,0-1.04,0h-0.1C24.31,72.82,24.29,72.32,24.31,71.84 M32.22,68.91
		c0.74,0.79,1.19,1.84,1.24,2.93c0.01,0.49,0,0.98,0.01,1.47H33.4c-0.39-0.01-0.78,0-1.18,0C32.21,71.84,32.22,70.37,32.22,68.91
		 M70.88,73.3c-0.02-0.73,0.03-1.46-0.06-2.18c-0.19-1.6-0.92-3.12-2.03-4.28c-0.88-0.92-2.01-1.62-3.23-1.99
		c-1.56-0.48-3.28-0.42-4.81,0.15c-1.4,0.52-2.64,1.48-3.5,2.7c-0.85,1.2-1.34,2.66-1.37,4.13c-0.01,0.49,0,0.97,0,1.46
		c-0.75,0-1.5,0-2.25,0c0-0.79,0.04-1.58-0.08-2.36c-0.2-1.4-0.81-2.73-1.73-3.8c-0.93-1.09-2.19-1.9-3.57-2.31
		c-1.58-0.47-3.32-0.39-4.85,0.21c-1.46,0.57-2.73,1.62-3.58,2.94c-0.75,1.17-1.17,2.54-1.18,3.93c0,0.46,0,0.92,0,1.39
		c-0.75-0.01-1.5,0-2.25,0c0-0.84,0.04-1.68-0.1-2.51c-0.3-1.85-1.33-3.57-2.82-4.71c-1.16-0.9-2.59-1.45-4.06-1.54
		c-1.75-0.13-3.54,0.39-4.96,1.44c-1.45,1.06-2.5,2.66-2.88,4.42c-0.23,0.95-0.17,1.93-0.18,2.9c-0.95-0.01-1.9,0-2.86,0v0v3.61
		h52.35v-3.58V73.3z"/>
	<path class="st2" d="M68.88,34.47c0.05-2.31,0.01-4.62,0.02-6.93c0.03-0.43-0.29-0.81-0.7-0.88H57.52h-8.71H33.77
		c-0.41,0.08-0.73,0.46-0.7,0.88c0,4.51,0,9.01,0,13.52c0.56,0.23,1.11,0.47,1.67,0.71c0-4.48,0-8.96,0-13.44c4.56,0,9.11,0,13.67,0
		c0.13,0,0.26,0,0.4,0v0h0.92c0.24,0,0.49,0,0.74,0h1.77c-0.01,0.01-0.02,0.01-0.03,0.02c0.04-0.01,0.09-0.01,0.14-0.02h5.17v0
		c3.24,0,6.48,0,9.71,0c0,7.62,0,15.25,0,22.87c-9.42,0-18.84,0.01-28.26,0c-0.03,0.02-0.09,0.05-0.12,0.06
		c-0.16-0.06-0.34-0.08-0.51-0.02c-0.13,0-0.26,0-0.39,0c-0.14-0.04-0.28-0.04-0.42-0.02c-0.93-0.06-1.86-0.01-2.79-0.03
		c0-1.09,0-2.17,0-3.26c-0.59-0.05-1.13-0.33-1.67-0.56c0,1.55,0,3.09,0,4.64c-0.02,0.39,0.28,0.77,0.67,0.83
		c0.29,0.04,0.59,0.01,0.89,0.02c10.98,0,21.96,0,32.94,0c0.33-0.01,0.72,0.06,1-0.17c0.24-0.17,0.34-0.47,0.33-0.75
		c0-5.13,0-10.26,0-15.38C68.89,35.86,68.92,35.16,68.88,34.47"/>
</g>
</svg>
