<?xml version="1.0" encoding="utf-8"?>
<!-- Generator: Adobe Illustrator 25.0.0, SVG Export Plug-In . SVG Version: 6.00 Build 0)  -->
<svg version="1.1" id="Calque_1" xmlns="http://www.w3.org/2000/svg" xmlns:xlink="http://www.w3.org/1999/xlink" x="0px" y="0px"
	 viewBox="0 0 100 100" style="enable-background:new 0 0 100 100;" xml:space="preserve">
<style type="text/css">
	.st0{opacity:0.5;}
	.st1{fill:#FFFFFF;}
	.st2{fill:#EF7D00;}
	.st3{clip-path:url(#SVGID_2_);fill:#F6A758;}
	.st4{clip-path:url(#SVGID_2_);fill:#EF7D00;}
	.st5{clip-path:url(#SVGID_4_);fill:#EF7D00;}
</style>
<g class="st0">
	<g>
		<path class="st2" d="M39.22,47.36c-0.04,1.27-0.16,2.53-0.19,3.8c-0.04,0.69,0.54,1.35,1.24,1.4c0.78,0.15,1.59-0.21,2.11-0.79
			c0.47-0.57,0.52-1.33,0.73-2.01c-0.7-1.13-1.43-2.25-2.16-3.36C40.36,46.71,39.78,47.04,39.22,47.36 M31.96,47.68
			c-0.81,0.63-1.51,1.39-2.28,2.08c0.98-0.35,2-0.59,2.94-1.03c2.43-1.38,4.86-2.74,7.28-4.13c-0.13-0.41-0.22-0.83-0.27-1.25
			C37.09,44.81,34.51,46.22,31.96,47.68 M49.1,41.83c1.26,1.55,2.54,3.08,3.8,4.62c0.27,0.32,0.51,0.69,0.88,0.9
			c1.16,0.69,2.34,1.37,3.51,2.06c0.63-1.78,1.22-3.57,1.84-5.36c-2.18-1.39-4.37-2.78-6.56-4.17
			C51.41,40.53,50.25,41.18,49.1,41.83 M51.51,28.83c-2.52,0.9-5.04,1.82-7.56,2.73c-0.22,0.09-0.45,0.16-0.62,0.33
			c-2.19,2.97-4.41,5.92-6.63,8.87c-0.43,0.49-0.29,1.33,0.26,1.66c1.06-0.45,2.02-1.11,3.05-1.65c0.41-0.17,0.57-0.61,0.87-0.91
			c0.84-0.9,2.06-1.35,3.27-1.42c0.74-0.42,1.49-0.83,2.23-1.27c-0.47-0.08-1.04-0.19-1.21-0.7c-0.31-0.65,0.24-1.49,0.97-1.43
			c1.02,0.12,2.01,0.4,3.03,0.53c0.08-0.03,0.24-0.1,0.32-0.14c3.01-1.67,6-3.4,9.02-5.05c-1.89-0.5-3.76-1.05-5.65-1.56
			C52.43,28.7,51.95,28.67,51.51,28.83 M46.81,39.31c0.35,0.27,0.67,0.57,0.97,0.9c8.07-4.54,16.14-9.08,24.21-13.61
			c-0.18-0.38-0.39-0.74-0.61-1.1C63.19,30.1,55.01,34.72,46.81,39.31 M71.16,23.27c0.29-0.17,0.64-0.27,0.97-0.14
			c0.47,0.15,0.67,0.63,0.88,1.03c0.44,0.79,0.9,1.57,1.32,2.38c0.26,0.47,0.03,1.11-0.44,1.35c-1.83,1.05-3.67,2.06-5.51,3.1
			c1.49,0.41,2.85,1.28,3.76,2.54c0.73,0.94,1.02,2.11,1.38,3.22c1.99,6.21,3.99,12.43,5.98,18.64c0.28,0.81,0.47,1.65,0.83,2.42
			c1.17,1.7,2.37,3.39,3.54,5.09c0.33,0.42,0.27,1.1-0.16,1.43c-0.46,0.4-1.23,0.24-1.54-0.27c-1.13-1.61-2.25-3.23-3.38-4.84
			c-0.19-0.27-0.4-0.53-0.5-0.84c-2.38-7.44-4.77-14.87-7.15-22.31c-0.33-1.2-1.18-2.27-2.34-2.74c-0.96-0.37-1.97-0.58-2.95-0.88
			c-3.77,2.06-7.49,4.2-11.24,6.3c2.1,1.32,4.18,2.66,6.28,3.99c0.44,0.24,0.62,0.81,0.44,1.27c-0.72,2.17-1.49,4.31-2.21,6.48
			c0.89,0.54,1.8,1.05,2.7,1.58c0.35,0.22,0.8,0.37,0.97,0.79c0.23,0.48,0.01,1.11-0.47,1.34c-0.33,0.18-0.74,0.13-1.05-0.07
			c-2.97-1.73-5.94-3.47-8.9-5.2c-0.14-0.09-0.26-0.21-0.37-0.33c-1.99-2.39-3.95-4.81-5.95-7.2c-0.79-1.01-2.44-1.16-3.41-0.33
			c-0.77,0.57-1.1,1.62-0.89,2.55c0.12,0.47,0.41,0.87,0.67,1.28c1.52,2.37,3.04,4.73,4.56,7.09c0.24,0.39,0.5,0.76,0.78,1.11
			c2.38,3.01,4.77,6.02,7.14,9.03c0.15,0.19,0.34,0.33,0.55,0.45c4.51,2.56,9.02,5.12,13.53,7.69c0.28,0.14,0.43,0.41,0.57,0.67
			c0.81,1.51,1.65,3.01,2.45,4.53c0.39,0.69-0.29,1.61-1.06,1.47c-0.46-0.04-0.75-0.44-0.93-0.83c-0.69-1.28-1.39-2.55-2.08-3.83
			c-0.12-0.24-0.31-0.43-0.55-0.55c-4.49-2.54-8.97-5.09-13.45-7.64c-0.14-0.08-0.26-0.18-0.35-0.31c-2.49-3.15-4.98-6.29-7.46-9.44
			c-0.58-0.72-1.03-1.53-1.54-2.29c-0.51,1.08-1.42,2.02-2.58,2.37c-1.21,0.42-2.64,0.3-3.67-0.51c-0.95-0.68-1.41-1.88-1.36-3.02
			c0.04-0.77,0.09-1.54,0.13-2.31c-1.22,0.69-2.43,1.39-3.66,2.08c-0.41,0.22-0.87,0.33-1.3,0.48c-2.02,0.67-4.04,1.32-6.06,2
			c-0.37,0.13-0.81,0.14-1.12-0.12c-0.49-0.36-0.53-1.16-0.06-1.56c1.8-1.72,3.62-3.41,5.43-5.12c0.32-0.31,0.72-0.49,1.1-0.7
			c1.25-0.7,2.49-1.4,3.74-2.1c-0.87-0.95-0.96-2.46-0.39-3.59c2.24-3.06,4.56-6.06,6.8-9.12c0.41-0.51,0.94-0.92,1.56-1.14
			c2.41-0.87,4.82-1.74,7.22-2.61c0.92-0.35,1.95-0.49,2.91-0.23c2.59,0.7,5.17,1.45,7.77,2.14C64.41,27.06,67.78,25.16,71.16,23.27
			"/>
		<path class="st2" d="M21.51,52.69c0.52-0.26,1.22,0.02,1.41,0.57c0.23,0.51-0.1,1.13-0.6,1.33c-1.65,0.75-3.3,1.5-4.96,2.25
			c-0.66,0.34-1.52-0.29-1.43-1.02c0.02-0.41,0.32-0.76,0.7-0.9C18.25,54.18,19.87,53.42,21.51,52.69"/>
	</g>
</g>
</svg>
