<?xml version="1.0" encoding="utf-8"?>
<!-- Generator: Adobe Illustrator 25.0.0, SVG Export Plug-In . SVG Version: 6.00 Build 0)  -->
<svg version="1.1" id="Calque_1" xmlns="http://www.w3.org/2000/svg" xmlns:xlink="http://www.w3.org/1999/xlink" x="0px" y="0px"
	 viewBox="0 0 100 100" style="enable-background:new 0 0 100 100;" xml:space="preserve">
<style type="text/css">
	.st0{opacity:0.5;}
	.st1{fill:#FFFFFF;}
	.st2{fill:#EF7D00;}
	.st3{clip-path:url(#SVGID_2_);fill:#F6A758;}
	.st4{clip-path:url(#SVGID_2_);fill:#EF7D00;}
	.st5{clip-path:url(#SVGID_4_);fill:#EF7D00;}
</style>
<g class="st0">
	<g>
		<path class="st2" d="M58.82,30.27c-1.96,1.84-4.14,3.43-6.43,4.85c-4.84,2.94-10.26,4.77-15.67,6.36
			c-0.95,4.77-1.85,9.55-2.76,14.32c4.69-1.37,9.34-2.92,13.8-4.92c5.76-2.56,11.12-6.1,15.59-10.56c-1.19-3.65-2.34-7.32-3.5-10.99
			C59.47,29.61,59.14,29.95,58.82,30.27 M59.57,24.25c0.59-0.77,1.05-1.62,1.54-2.46c2.97,9.53,6.07,19.02,9.07,28.54
			c-0.42,1.1-1.26,2-2.01,2.9c-3.13,3.51-6.88,6.4-10.7,9.11c-4.44,3.14-9.22,5.77-14.13,8.09c-5.52,2.55-11.18,4.8-17,6.57
			c2.44-12.78,4.9-25.56,7.38-38.34c3.17-0.75,6.27-1.81,9.33-2.92c2-0.79,4-1.61,5.89-2.64C52.99,30.85,56.76,27.96,59.57,24.25"/>
		<path class="st2" d="M69.44,55.32c0.71,1.66,1.46,3.31,2.09,5c-2.07,1.85-4.49,3.25-6.94,4.52c-5.37,2.76-11.03,4.92-16.72,6.88
			c-1.97,0.63-3.93,1.34-5.95,1.81c1.22-0.49,2.39-1.11,3.57-1.68c4.34-2.18,8.69-4.4,12.7-7.15
			C62.19,61.89,66.11,58.91,69.44,55.32"/>
		<path class="st2" d="M70.28,64.28c0.17-0.15,0.4-0.18,0.62-0.21c0.66,1.97,1.52,3.86,2.18,5.83c-3.2,1.36-6.6,2.13-9.99,2.87
			c-5.56,1.12-11.18,1.93-16.81,2.59c-1.87,0.24-3.75,0.44-5.62,0.59c6.89-1.89,13.72-4.04,20.31-6.79
			C64.2,67.78,67.38,66.26,70.28,64.28"/>
		<path class="st2" d="M67.05,74.19c1.57-0.35,3.12-0.75,4.65-1.23c0.46,1.36,0.96,2.7,1.4,4.07c-9.35,0.18-18.71,0.4-28.06,0.58
			c-2.94,0.04-5.89,0.17-8.84,0.14c3.72-0.12,7.44-0.47,11.15-0.77C53.95,76.34,60.56,75.59,67.05,74.19"/>
	</g>
</g>
</svg>
