<?xml version="1.0" encoding="utf-8"?>
<!-- Generator: Adobe Illustrator 25.0.0, SVG Export Plug-In . SVG Version: 6.00 Build 0)  -->
<svg version="1.1" id="Calque_1" xmlns="http://www.w3.org/2000/svg" xmlns:xlink="http://www.w3.org/1999/xlink" x="0px" y="0px"
	 viewBox="0 0 300 300" style="enable-background:new 0 0 300 300;" xml:space="preserve">
<style type="text/css">
	.st0{fill:#F39200;}
</style>
<g>
	<path class="st0" d="M212.91,102.03c-1.48-3.8-3.24-6.5-6.08-9.35c-2.85-2.85-5.56-4.61-9.35-6.08c-2.87-1.11-7.17-2.44-15.1-2.8
		c-8.58-0.39-11.15-0.47-32.86-0.47c-21.72,0-24.29,0.08-32.87,0.47c-7.93,0.36-12.24,1.69-15.1,2.8c-3.8,1.48-6.51,3.24-9.35,6.08
		c-2.85,2.85-4.61,5.56-6.08,9.35c-1.11,2.87-2.44,7.17-2.8,15.1c-0.39,8.58-0.47,11.15-0.47,32.86c0,21.72,0.08,24.29,0.47,32.86
		c0.36,7.93,1.69,12.24,2.8,15.1c1.48,3.8,3.24,6.51,6.08,9.35c2.85,2.85,5.56,4.61,9.35,6.08c2.87,1.11,7.17,2.44,15.1,2.8
		c8.58,0.39,11.15,0.47,32.87,0.47c21.72,0,24.29-0.08,32.86-0.47c7.93-0.36,12.24-1.69,15.1-2.8c3.8-1.48,6.51-3.24,9.35-6.08
		c2.85-2.85,4.61-5.55,6.08-9.35c1.11-2.87,2.44-7.17,2.8-15.1c0.39-8.58,0.47-11.15,0.47-32.86c0-21.72-0.08-24.29-0.47-32.86
		C215.35,109.2,214.03,104.9,212.91,102.03z M149.51,191.77c-23.07,0-41.77-18.7-41.77-41.77c0-23.07,18.7-41.76,41.77-41.76
		c23.07,0,41.76,18.7,41.76,41.76C191.27,173.07,172.58,191.77,149.51,191.77z M192.92,116.35c-5.39,0-9.76-4.37-9.76-9.76
		c0-5.39,4.37-9.76,9.76-9.76c5.39,0,9.76,4.37,9.76,9.76C202.68,111.97,198.31,116.35,192.92,116.35z"/>
	<path class="st0" d="M149.51,122.89c-14.97,0-27.11,12.14-27.11,27.11c0,14.97,12.14,27.11,27.11,27.11
		c14.97,0,27.11-12.14,27.11-27.11C176.62,135.03,164.48,122.89,149.51,122.89z"/>
	<path class="st0" d="M149.51,1.66L149.51,1.66C67.58,1.66,1.17,68.08,1.17,150s66.41,148.34,148.34,148.34h0
		c81.92,0,148.34-66.41,148.34-148.34S231.43,1.66,149.51,1.66z M230.35,183.53c-0.4,8.66-1.77,14.57-3.78,19.74
		c-2.08,5.35-4.86,9.88-9.38,14.41c-4.52,4.52-9.06,7.3-14.41,9.38c-5.17,2.01-11.09,3.39-19.74,3.78
		c-8.68,0.4-11.44,0.49-33.53,0.49c-22.09,0-24.86-0.09-33.53-0.49c-8.66-0.39-14.57-1.77-19.74-3.78
		c-5.35-2.08-9.88-4.86-14.41-9.38c-4.52-4.52-7.3-9.06-9.38-14.41c-2.01-5.17-3.39-11.09-3.78-19.74
		c-0.4-8.68-0.49-11.44-0.49-33.53s0.09-24.86,0.49-33.53c0.39-8.66,1.77-14.57,3.78-19.74c2.08-5.35,4.86-9.88,9.38-14.41
		c4.52-4.52,9.06-7.3,14.41-9.38c5.17-2.01,11.09-3.39,19.74-3.78c8.68-0.4,11.44-0.49,33.53-0.49c22.09,0,24.86,0.09,33.53,0.49
		c8.66,0.39,14.57,1.77,19.74,3.78c5.35,2.08,9.88,4.86,14.41,9.38c4.52,4.52,7.3,9.06,9.38,14.41c2.01,5.17,3.39,11.08,3.78,19.74
		c0.39,8.68,0.49,11.44,0.49,33.53S230.75,174.86,230.35,183.53z"/>
</g>
</svg>
