<?xml version="1.0" encoding="utf-8"?>
<!-- Generator: Adobe Illustrator 25.0.0, SVG Export Plug-In . SVG Version: 6.00 Build 0)  -->
<svg version="1.1" id="Calque_1" xmlns="http://www.w3.org/2000/svg" xmlns:xlink="http://www.w3.org/1999/xlink" x="0px" y="0px"
	 viewBox="0 0 300 300" style="enable-background:new 0 0 300 300;" xml:space="preserve">
<style type="text/css">
	.st0{fill:#F39200;}
</style>
<g>
	<path class="st0" d="M149.56,1.66C67.64,1.66,1.23,68.08,1.23,150s66.41,148.34,148.34,148.34S297.9,231.92,297.9,150
		S231.49,1.66,149.56,1.66z M113,216.11H82.3v-99.18H113V216.11z M97.5,103.95c-10.03,0-18.15-8.2-18.15-18.3
		c0-10.1,8.12-18.3,18.15-18.3c10.03,0,18.15,8.19,18.15,18.3C115.66,95.75,107.53,103.95,97.5,103.95z M228.05,216.11h-30.56
		c0,0,0-37.78,0-52.06c0-14.28-5.42-22.25-16.71-22.25c-12.29,0-18.71,8.31-18.71,22.25c0,15.28,0,52.06,0,52.06h-29.45v-99.18
		h29.45v13.36c0,0,8.85-16.39,29.89-16.39c21.03,0,36.08,12.84,36.08,39.41C228.05,179.88,228.05,216.11,228.05,216.11z"/>
</g>
</svg>
