<?xml version="1.0" encoding="utf-8"?>
<!-- Generator: Adobe Illustrator 25.0.0, SVG Export Plug-In . SVG Version: 6.00 Build 0)  -->
<svg version="1.1" id="Calque_1" xmlns="http://www.w3.org/2000/svg" xmlns:xlink="http://www.w3.org/1999/xlink" x="0px" y="0px"
	 viewBox="0 0 300 300" style="enable-background:new 0 0 300 300;" xml:space="preserve">
	<style type="text/css">
		.st0{opacity:0.6;fill:#FFFFFF;}
		.st1{fill:#FFFFFF;}
	</style>
	<g>
		<g>
			<path class="st0" d="M68.59,108.73c-2.89-2.14-6.91-3.08-12.05-2.83c-11.46,2.19-20.35,10.13-26.66,23.83
				c-6.31,13.7-9.15,25.82-8.51,36.35c0.54,6.33,2.43,10.87,5.68,13.61c3.25,2.75,7.93,3.86,14.05,3.34
				c12.41-1.82,23.58-8.28,33.51-19.37c9.45-10.55,17.07-20.95,22.88-31.19v-29.36H79.73l-4.02,12.3
				C73.86,113.09,71.49,110.86,68.59,108.73z"/>
			<path class="st1" d="M97.03,135.52c-5.1,10.6-13.22,21.92-24.38,33.95C61.5,181.51,48.2,188.7,32.78,191.03
				c-7.15,0.54-12.88-0.81-17.17-4.07c-4.29-3.25-6.77-8.47-7.45-15.65c-0.62-12.52,4.05-26.74,14.02-42.65
				c7.97-12.73,18.08-21.24,30.34-25.55H3.7v93.79h93.79v-62.94L97.03,135.52z"/>
		</g>
		<g>
			<g>
				<g>
					<path class="st1" d="M197.92,175.65l3.31,0.61c-0.67,2.28-1.65,4-2.95,5.13c-1.3,1.14-2.81,1.71-4.52,1.71
						c-1.92,0-3.43-0.71-4.56-2.13c-1.12-1.42-1.68-3.54-1.68-6.38c0-2.43,0.41-4.57,1.22-6.43c0.82-1.85,1.86-3.23,3.12-4.13
						c1.26-0.9,2.63-1.35,4.1-1.35c1.66,0,3.04,0.55,4.14,1.66c1.1,1.1,1.75,2.68,1.95,4.74l-3.15,0.38
						c-0.19-1.19-0.53-2.04-1.04-2.53c-0.5-0.49-1.16-0.74-1.97-0.74c-0.82,0-1.62,0.3-2.38,0.9s-1.41,1.61-1.95,3.02
						c-0.54,1.41-0.8,2.97-0.8,4.67c0,1.59,0.31,2.81,0.93,3.66c0.62,0.85,1.37,1.27,2.26,1.27c0.84,0,1.62-0.33,2.34-1
						C197.03,178.03,197.56,177.01,197.92,175.65z"/>
					<path class="st1" d="M206.86,172.51l-3.06-0.32c0.37-1.32,1-2.33,1.9-3.02c0.9-0.69,2.05-1.04,3.43-1.04
						c1.41,0,2.5,0.35,3.26,1.06c0.76,0.71,1.14,1.65,1.14,2.82c0,0.41-0.04,0.85-0.11,1.31c-0.07,0.46-0.34,1.73-0.8,3.8
						c-0.38,1.71-0.58,2.9-0.58,3.57c0,0.63,0.1,1.32,0.31,2.06h-3.12c-0.13-0.52-0.21-1.07-0.23-1.63
						c-0.45,0.63-0.96,1.11-1.53,1.45c-0.58,0.33-1.15,0.5-1.72,0.5c-0.91,0-1.67-0.38-2.28-1.13c-0.62-0.75-0.92-1.76-0.92-3.02
						c0-1.45,0.36-2.56,1.09-3.34c0.72-0.78,1.92-1.25,3.62-1.41c1.49-0.15,2.49-0.34,2.99-0.55c0.17-0.55,0.25-0.98,0.25-1.31
						c0-0.43-0.15-0.78-0.44-1.04c-0.29-0.26-0.69-0.4-1.19-0.4C207.77,170.88,207.1,171.43,206.86,172.51z M209.74,176.09
						c-0.19,0.06-0.44,0.12-0.74,0.17c-1.43,0.21-2.37,0.5-2.83,0.87c-0.45,0.36-0.68,0.85-0.68,1.46c0,0.47,0.13,0.86,0.39,1.15
						c0.26,0.3,0.59,0.44,0.98,0.44c0.41,0,0.81-0.12,1.19-0.37c0.38-0.25,0.68-0.59,0.91-1.03c0.23-0.44,0.45-1.17,0.66-2.18
						L209.74,176.09z"/>
					<path class="st1" d="M217.03,168.46H220l-0.31,1.74c1.17-1.37,2.4-2.06,3.68-2.06c1.71,0,2.7,0.84,2.97,2.52
						c0.42-0.74,1.01-1.34,1.77-1.81c0.76-0.47,1.53-0.71,2.31-0.71c0.91,0,1.64,0.29,2.17,0.88c0.54,0.59,0.81,1.41,0.81,2.46
						c0,0.49-0.1,1.34-0.31,2.55l-1.48,8.73h-3.15l1.48-8.74c0.19-1.1,0.28-1.71,0.28-1.86c0-0.41-0.1-0.73-0.31-0.95
						c-0.21-0.22-0.49-0.33-0.85-0.33c-0.77,0-1.46,0.48-2.07,1.43c-0.49,0.74-0.89,2.06-1.22,3.94l-1.09,6.51h-3.14l1.46-8.64
						c0.17-1,0.25-1.64,0.25-1.93c0-0.4-0.11-0.72-0.33-0.96c-0.22-0.23-0.51-0.35-0.85-0.35c-0.46,0-0.94,0.22-1.43,0.65
						c-0.49,0.44-0.88,1.07-1.17,1.91c-0.17,0.49-0.38,1.41-0.61,2.75l-1.12,6.57h-3.13L217.03,168.46z"/>
					<path class="st1" d="M246,176.81h-7.86v0.36c0,0.96,0.22,1.73,0.67,2.3c0.44,0.57,0.98,0.86,1.6,0.86
						c1.03,0,1.84-0.66,2.43-1.99l2.81,0.58c-0.55,1.39-1.28,2.43-2.19,3.12c-0.91,0.69-1.94,1.04-3.07,1.04
						c-1.51,0-2.76-0.59-3.76-1.78c-1-1.19-1.5-2.8-1.5-4.84c0-2.2,0.57-4.14,1.7-5.81c1.14-1.67,2.72-2.51,4.76-2.51
						c1.37,0,2.49,0.53,3.35,1.58c0.86,1.05,1.28,2.58,1.28,4.57C246.21,175.23,246.14,176.07,246,176.81z M243.35,174.45l0.01-0.38
						c0-1.09-0.2-1.89-0.59-2.41c-0.39-0.52-0.91-0.78-1.54-0.78c-0.64,0-1.22,0.3-1.74,0.9c-0.52,0.6-0.87,1.49-1.05,2.67H243.35z"
						/>
					<path class="st1" d="M249.32,168.46h2.94l-0.47,2.77c1.1-2.07,2.29-3.1,3.58-3.1c0.45,0,0.94,0.13,1.47,0.4l-1.2,3.16
						c-0.29-0.13-0.59-0.19-0.9-0.19c-0.49,0-0.96,0.17-1.39,0.5c-0.66,0.51-1.16,1.18-1.51,2.01c-0.35,0.83-0.7,2.24-1.04,4.25
						l-0.77,4.48h-3.13L249.32,168.46z"/>
					<path class="st1" d="M256.31,176.82c0-2.34,0.52-4.34,1.57-5.98c1.16-1.8,2.84-2.71,5.04-2.71c1.65,0,2.96,0.57,3.94,1.7
						c0.98,1.13,1.47,2.71,1.47,4.73c0,2.37-0.61,4.38-1.83,6.04c-1.22,1.66-2.81,2.48-4.78,2.48c-1.61,0-2.91-0.56-3.91-1.68
						C256.81,180.28,256.31,178.75,256.31,176.82z M265.24,174.06c0-0.94-0.22-1.68-0.66-2.22s-1-0.81-1.67-0.81
						c-0.57,0-1.1,0.2-1.6,0.59c-0.5,0.4-0.93,1.08-1.31,2.06c-0.37,0.98-0.56,1.99-0.56,3.04c0,1.07,0.23,1.9,0.69,2.49
						c0.46,0.59,1.02,0.89,1.7,0.89c0.85,0,1.58-0.46,2.17-1.37C264.82,177.48,265.24,175.92,265.24,174.06z"/>
					<path class="st1" d="M271.66,168.46h3.15l-1.43,8.44c-0.17,1.01-0.25,1.64-0.25,1.9c0,0.44,0.12,0.81,0.37,1.1
						c0.25,0.29,0.56,0.44,0.92,0.44c0.42,0,0.84-0.15,1.25-0.46c0.58-0.42,1.04-0.97,1.38-1.65c0.34-0.68,0.64-1.66,0.88-2.96
						l1.25-6.81h3.15l-2.62,14.3h-2.94l0.35-1.94c-1.27,1.51-2.65,2.26-4.13,2.26c-0.93,0-1.67-0.33-2.22-0.99
						c-0.55-0.66-0.82-1.57-0.82-2.73c0-0.48,0.12-1.46,0.37-2.94L271.66,168.46z"/>
					<path class="st1" d="M285.59,168.46h2.98l-0.31,1.86c0.77-0.82,1.47-1.38,2.12-1.7c0.64-0.32,1.3-0.48,1.98-0.48
						c0.93,0,1.67,0.33,2.23,0.98c0.56,0.66,0.84,1.55,0.84,2.69c0,0.49-0.11,1.44-0.34,2.84l-1.36,8.11h-3.15l1.37-8.11
						c0.2-1.21,0.3-1.94,0.3-2.18c0-0.51-0.12-0.9-0.36-1.18s-0.56-0.41-0.95-0.41c-0.42,0-0.86,0.17-1.3,0.51
						c-0.64,0.48-1.11,1.06-1.42,1.73c-0.31,0.67-0.62,1.92-0.93,3.76l-1,5.87h-3.13L285.59,168.46z"/>
				</g>
			</g>
			<g>
				<g>
					<path class="st1" d="M112.91,132.94c0-8.19,6.02-15.29,15.37-15.29h4.07v5.51h-4.07c-5.85,0-9.52,4.45-9.52,9.78
						c0,5.33,3.68,9.78,9.52,9.78h4.07v5.51h-4.07C118.93,148.23,112.91,141.14,112.91,132.94z"/>
					<path class="st1" d="M157.95,148.23h-5.85v-7.8c0-2.69-1.24-3.92-3.99-3.92h-3.37v-5.42h3.72c0.75,0,4.56-0.22,4.56-4.01
						c0-1.01,0-4.01-4.69-4.01h-5.89v25.16h-5.89v-30.58h11.78c6.42,0,10.54,3.39,10.54,9.12c0,3.48-1.64,5.73-4.3,6.96
						c2.17,1.23,3.37,3.3,3.37,6.56V148.23z"/>
					<path class="st1" d="M168.75,138.58c0,2.82,1.11,3.92,3.9,3.92h10.81v5.73h-10.85c-6.33,0-9.7-3.88-9.7-9.74v-11.1
						c0-5.86,3.37-9.74,9.7-9.74h10.85v5.73h-10.81c-2.79,0-3.9,1.06-3.9,3.88V138.58z M181.2,135.63h-10.1v-5.42h10.1V135.63z"/>
					<path class="st1" d="M209.76,148.23h-5.85v-8.55h-8.24v-5.6h8.24v-6.26c0-3.26-1.99-5.24-5.31-5.24c-3.28,0-5.27,1.98-5.27,5.24
						v20.4h-5.85v-20.27c0-3.13,1.11-5.95,3.1-7.93c2.04-2.03,4.87-3.13,8.02-3.13c3.19,0,6.02,1.1,8.06,3.13
						c1.99,1.98,3.1,4.8,3.1,7.93V148.23z"/>
					<path class="st1" d="M234.61,123.07h-22.32v-5.42h22.32V123.07z M226.37,148.23h-5.85v-22.82h5.85V148.23z"/>
					<path class="st1" d="M244.13,148.23h-5.85v-30.58h5.85V148.23z"/>
					<path class="st1" d="M256.27,145.14l-9.08-27.49h6.2c0,0,4.3,13.61,5.8,18.37L256.27,145.14z M257.73,148.23l9.79-30.58h6.11
						l-10.05,30.58H257.73z"/>
					<path class="st1" d="M281.11,138.58c0,2.82,1.11,3.92,3.9,3.92h10.81v5.73h-10.85c-6.33,0-9.7-3.88-9.7-9.74v-11.1
						c0-5.86,3.37-9.74,9.7-9.74h10.85v5.73h-10.81c-2.79,0-3.9,1.06-3.9,3.88V138.58z M293.55,135.63h-10.1v-5.42h10.1V135.63z"/>
				</g>
			</g>
			<g>
				<path class="st1" d="M112.87,133.09c0-8.22,6.04-15.33,15.41-15.33h4.09v5.52h-4.09c-5.86,0-9.55,4.46-9.55,9.81
					c0,5.35,3.69,9.81,9.55,9.81h4.09v5.52h-4.09C118.91,148.43,112.87,141.31,112.87,133.09z"/>
				<path class="st1" d="M158.04,148.43h-5.86v-7.82c0-2.7-1.24-3.93-4-3.93h-3.38v-5.44h3.73c0.76,0,4.57-0.22,4.57-4.02
					c0-1.02,0-4.02-4.71-4.02h-5.91v25.23h-5.91v-30.67h11.81c6.44,0,10.57,3.4,10.57,9.15c0,3.49-1.64,5.74-4.31,6.98
					c2.18,1.24,3.38,3.31,3.38,6.58V148.43z"/>
				<path class="st1" d="M168.87,138.75c0,2.83,1.11,3.93,3.91,3.93h10.84v5.74h-10.88c-6.35,0-9.73-3.89-9.73-9.77v-11.14
					c0-5.88,3.37-9.77,9.73-9.77h10.88v5.74h-10.84c-2.8,0-3.91,1.06-3.91,3.89V138.75z M181.35,135.79h-10.13v-5.43h10.13V135.79z"
					/>
				<path class="st1" d="M210,148.43h-5.86v-8.57h-8.26v-5.61h8.26v-6.27c0-3.27-2-5.26-5.33-5.26c-3.29,0-5.29,1.99-5.29,5.26v20.46
					h-5.86V128.1c0-3.14,1.11-5.97,3.11-7.95c2.04-2.03,4.89-3.14,8.04-3.14c3.2,0,6.04,1.1,8.08,3.14c2,1.99,3.11,4.82,3.11,7.95
					V148.43z"/>
				<path class="st1" d="M234.92,123.2h-22.39v-5.44h22.39V123.2z M226.66,148.43h-5.86v-22.89h5.86V148.43z"/>
				<path class="st1" d="M244.47,148.43h-5.86v-30.67h5.86V148.43z"/>
				<path class="st1" d="M256.64,145.33l-9.1-27.57h6.22c0,0,4.31,13.65,5.82,18.43L256.64,145.33z M258.11,148.43l9.82-30.67h6.13
					l-10.08,30.67H258.11z"/>
				<path class="st1" d="M281.56,138.75c0,2.83,1.11,3.93,3.91,3.93h10.84v5.74h-10.88c-6.35,0-9.73-3.89-9.73-9.77v-11.14
					c0-5.88,3.38-9.77,9.73-9.77h10.88v5.74h-10.84c-2.8,0-3.91,1.06-3.91,3.89V138.75z M294.04,135.79h-10.13v-5.43h10.13V135.79z"
					/>
			</g>
		</g>
	</g>
</svg>
