<?xml version="1.0" encoding="utf-8"?>
<!-- Generator: Adobe Illustrator 25.0.0, SVG Export Plug-In . SVG Version: 6.00 Build 0)  -->
<svg version="1.1" id="Calque_1" xmlns="http://www.w3.org/2000/svg" xmlns:xlink="http://www.w3.org/1999/xlink" x="0px" y="0px"
	 viewBox="0 0 300 300" style="enable-background:new 0 0 300 300;" xml:space="preserve">
	<style type="text/css">
		.st0{fill:#FFFFFF;}
		.st1{opacity:0.6;fill:#FFFFFF;enable-background:new    ;}
	</style>
	<g>
		<g>
			<g>
				<g>
					<path class="st0" d="M111.21,129.89c0-8.29,6.1-15.47,15.55-15.47h4.12v5.57h-4.12c-5.92,0-9.64,4.5-9.64,9.9
						c0,5.39,3.72,9.9,9.64,9.9h4.12v5.57h-4.12C117.31,145.36,111.21,138.18,111.21,129.89z"/>
					<path class="st0" d="M156.79,145.36h-5.92v-7.89c0-2.72-1.25-3.97-4.03-3.97h-3.41v-5.48h3.76c0.76,0,4.62-0.22,4.62-4.06
						c0-1.03,0-4.06-4.75-4.06h-5.96v25.46h-5.96v-30.94h11.92c6.5,0,10.67,3.43,10.67,9.23c0,3.52-1.66,5.8-4.35,7.04
						c2.2,1.25,3.41,3.34,3.41,6.64V145.36z"/>
					<path class="st0" d="M167.73,135.6c0,2.85,1.12,3.97,3.94,3.97h10.94v5.8h-10.98c-6.41,0-9.81-3.92-9.81-9.85v-11.24
						c0-5.93,3.41-9.85,9.81-9.85h10.98v5.8h-10.94c-2.82,0-3.94,1.07-3.94,3.92V135.6z M180.32,132.61H170.1v-5.48h10.22V132.61z"/>
					<path class="st0" d="M209.23,145.36h-5.92v-8.65h-8.34v-5.66h8.34v-6.33c0-3.3-2.02-5.31-5.38-5.31c-3.32,0-5.33,2.01-5.33,5.31
						v20.64h-5.92v-20.51c0-3.17,1.12-6.02,3.14-8.03c2.06-2.05,4.93-3.17,8.11-3.17c3.23,0,6.1,1.11,8.16,3.17
						c2.02,2.01,3.14,4.86,3.14,8.03V145.36z"/>
					<path class="st0" d="M234.37,119.9h-22.59v-5.48h22.59V119.9z M226.03,145.36h-5.92v-23.1h5.92V145.36z"/>
					<path class="st0" d="M244,145.36h-5.92v-30.94H244V145.36z"/>
					<path class="st0" d="M256.28,142.24l-9.19-27.82h6.27c0,0,4.35,13.78,5.87,18.59L256.28,142.24z M257.76,145.36l9.9-30.94h6.18
						l-10.17,30.94H257.76z"/>
					<path class="st0" d="M281.43,135.6c0,2.85,1.12,3.97,3.94,3.97h10.94v5.8h-10.98c-6.41,0-9.81-3.92-9.81-9.85v-11.24
						c0-5.93,3.41-9.85,9.81-9.85h10.98v5.8h-10.94c-2.82,0-3.94,1.07-3.94,3.92V135.6z M294.02,132.61H283.8v-5.48h10.22V132.61z"/>
				</g>
			</g>
			<g>
				<path class="st1" d="M67.29,109.55c-2.83-2.09-6.77-3.02-11.81-2.78c-11.23,2.14-19.94,9.93-26.13,23.36
					c-6.19,13.43-8.97,25.3-8.34,35.62c0.53,6.2,2.38,10.65,5.57,13.34c3.18,2.69,7.77,3.78,13.76,3.28
					c12.16-1.79,23.1-8.11,32.84-18.98c9.26-10.34,16.73-20.53,22.42-30.57v-28.77H78.21l-3.94,12.05
					C72.45,113.83,70.13,111.65,67.29,109.55z"/>
				<path class="st0" d="M95.16,135.81c-4.99,10.39-12.96,21.48-23.89,33.27c-10.93,11.8-23.96,18.84-39.07,21.13
					c-7.01,0.53-12.62-0.8-16.82-3.98c-4.2-3.19-6.63-8.3-7.3-15.34c-0.61-12.27,3.97-26.2,13.74-41.8
					c7.81-12.47,17.72-20.82,29.73-25.04H3.7v91.9H95.6v-61.68L95.16,135.81z"/>
			</g>
			<g>
				<path class="st0" d="M192.9,185.93h-6.29l6.39-30.52h12.41c2.21,0,3.95,0.26,5.24,0.78c1.28,0.52,2.3,1.38,3.05,2.58
					c0.75,1.2,1.12,2.63,1.12,4.3c0,1.54-0.3,3.04-0.9,4.5c-0.6,1.46-1.33,2.62-2.2,3.5c-0.87,0.87-1.8,1.54-2.8,1.99
					c-1,0.45-2.35,0.79-4.04,1.03c-0.99,0.14-2.83,0.21-5.54,0.21h-4.02L192.9,185.93z M196.38,169.24h1.94
					c3.32,0,5.53-0.21,6.64-0.62c1.11-0.42,1.98-1.08,2.62-2c0.64-0.92,0.96-1.92,0.96-3.02c0-0.74-0.16-1.34-0.49-1.81
					c-0.33-0.47-0.78-0.82-1.37-1.03c-0.59-0.21-1.9-0.32-3.94-0.32h-4.5L196.38,169.24z"/>
				<path class="st0" d="M214.99,185.93l6.39-30.52h5.95l-6.37,30.52H214.99z"/>
				<path class="st0" d="M235.31,170.09l-5.83-0.5c0.67-1.97,1.83-3.51,3.49-4.62c1.66-1.11,3.85-1.67,6.59-1.67
					c2.84,0,4.95,0.57,6.31,1.72c1.36,1.15,2.04,2.54,2.04,4.19c0,0.67-0.06,1.37-0.18,2.12c-0.12,0.75-0.53,2.72-1.24,5.91
					c-0.58,2.64-0.87,4.48-0.87,5.54c0,0.94,0.17,1.99,0.5,3.14h-5.81c-0.24-0.8-0.38-1.64-0.44-2.5c-0.87,0.97-1.88,1.72-3.02,2.24
					c-1.14,0.52-2.28,0.78-3.43,0.78c-1.83,0-3.34-0.6-4.54-1.8c-1.19-1.2-1.79-2.74-1.79-4.63c0-2.11,0.66-3.8,1.97-5.06
					c1.31-1.26,3.65-2.03,7.03-2.29c2.85-0.24,4.75-0.52,5.7-0.85c0.25-0.83,0.37-1.5,0.37-2c0-0.64-0.26-1.17-0.77-1.6
					c-0.51-0.43-1.28-0.65-2.29-0.65c-1.07,0-1.91,0.22-2.53,0.66C235.95,168.67,235.53,169.29,235.31,170.09z M240.99,175.63
					c-0.36,0.1-0.84,0.19-1.44,0.27c-3,0.36-4.96,0.89-5.87,1.58c-0.65,0.5-0.98,1.17-0.98,2.02c0,0.69,0.25,1.28,0.75,1.76
					s1.16,0.72,1.98,0.72c0.9,0,1.75-0.22,2.55-0.66c0.8-0.44,1.39-1,1.79-1.69c0.4-0.69,0.75-1.76,1.05-3.22L240.99,175.63z"/>
				<path class="st0" d="M265.58,177.61l5.81,0.94c-0.96,2.58-2.37,4.55-4.25,5.89c-1.87,1.35-4.05,2.02-6.52,2.02
					c-2.82,0-5.05-0.84-6.7-2.52c-1.65-1.68-2.48-3.99-2.48-6.93c0-2.4,0.5-4.67,1.5-6.81c1-2.14,2.5-3.82,4.52-5.05
					c2.01-1.23,4.22-1.84,6.62-1.84c2.61,0,4.69,0.68,6.25,2.04c1.55,1.36,2.43,3.15,2.62,5.37l-5.68,0.6
					c-0.14-1.24-0.52-2.14-1.13-2.73c-0.62-0.58-1.43-0.87-2.43-0.87c-1.15,0-2.23,0.43-3.23,1.29c-1,0.86-1.77,2.15-2.3,3.86
					c-0.53,1.71-0.8,3.32-0.8,4.82c0,1.3,0.32,2.31,0.96,3.02c0.64,0.71,1.44,1.06,2.39,1.06s1.88-0.35,2.77-1.04
					C264.38,180.04,265.08,178.99,265.58,177.61z"/>
				<path class="st0" d="M295.83,176.73h-14.99c-0.01,0.24-0.02,0.42-0.02,0.54c0,1.47,0.42,2.66,1.26,3.56
					c0.84,0.9,1.86,1.35,3.07,1.35c1.98,0,3.53-1.03,4.64-3.08l5.35,0.9c-1.04,2.15-2.43,3.76-4.17,4.84
					c-1.74,1.08-3.7,1.61-5.86,1.61c-2.97,0-5.39-0.94-7.25-2.82s-2.79-4.37-2.79-7.46c0-3.03,0.84-5.72,2.52-8.08
					c2.29-3.19,5.56-4.79,9.81-4.79c2.71,0,4.86,0.84,6.45,2.51c1.6,1.67,2.39,4.01,2.39,7.03
					C296.24,174.28,296.1,175.58,295.83,176.73z M290.79,173.09c0.01-0.26,0.02-0.46,0.02-0.6c0-1.64-0.37-2.87-1.1-3.68
					c-0.74-0.82-1.72-1.23-2.96-1.23c-1.24,0-2.34,0.47-3.32,1.39c-0.98,0.93-1.64,2.3-1.99,4.12H290.79z"/>
			</g>
		</g>
	</g>
</svg>
