<?xml version="1.0" encoding="utf-8"?>
<!-- Generator: Adobe Illustrator 25.0.0, SVG Export Plug-In . SVG Version: 6.00 Build 0)  -->
<svg version="1.1" id="Calque_1" xmlns="http://www.w3.org/2000/svg" xmlns:xlink="http://www.w3.org/1999/xlink" x="0px" y="0px"
	 viewBox="0 0 100 100" style="enable-background:new 0 0 100 100;" xml:space="preserve">
<style type="text/css">
	.st0{opacity:0.5;}
	.st1{fill:#FFFFFF;}
	.st2{fill:#EF7D00;}
	.st3{clip-path:url(#SVGID_2_);fill:#F6A758;}
	.st4{clip-path:url(#SVGID_2_);fill:#EF7D00;}
	.st5{clip-path:url(#SVGID_4_);fill:#EF7D00;}
</style>
<g class="st0">
	<g>
		<path class="st2" d="M51.88,22.63c2.28-1.08,5.11-0.82,7.18,0.62c2.34-0.49,4.82-0.75,7.16-0.13c0.68,0.19,1.64,0.71,1.32,1.57
			c-0.44,0.86-1.36,1.31-2.19,1.7c-2.35,1-4.91,1.43-7.46,1.42c-1.38-0.02-2.81-0.2-3.97-1.02c0.45,0.84,1.38,1.21,2.23,1.49
			c1.95,0.58,4.02,0.73,6.04,0.6c0.28,3.68-2.69,7.21-6.36,7.58c-3.56,0.54-7.24-1.99-8-5.51C46.96,27.68,48.78,23.99,51.88,22.63"
			/>
		<path class="st2" d="M80.1,35.5c-0.4,0.25,0.08,0.74,0.4,0.5C80.88,35.77,80.41,35.24,80.1,35.5 M80.09,32.27
			c0.01,0.94-0.03,1.89,0.03,2.84c0.08-0.02,0.23-0.06,0.31-0.08c0.19-0.86,0.04-1.81,0.07-2.7C80.4,32.31,80.19,32.28,80.09,32.27
			 M66.11,30.22c0.83,0,1.66,0,2.49,0.01c0.01-0.15,0.02-0.44,0.03-0.58c-0.82-0.03-1.65,0-2.47-0.03
			C66.14,29.81,66.13,30.01,66.11,30.22 M64.96,30.17c0.28-0.6,0.33-1.38,0.79-1.86c1.85-0.06,3.71,0,5.56-0.03
			c0.77-0.03,1.52,0.29,2.16,0.69c0.03,0.31,0.03,0.63,0.03,0.94c-0.65,0.14-1.31,0.31-1.84,0.73c0.17,0.49,0.18,1.02,0.18,1.53
			c0.2,0,0.59-0.01,0.79-0.02c0.23-0.19,0.45-0.38,0.68-0.56c2.64,0.02,5.28,0,7.92,0.01v7.22c-2.62-0.04-5.25,0.01-7.87,0.02
			c-0.26-0.2-0.52-0.4-0.77-0.59c-0.26,0-0.51,0-0.77,0.01c-0.09,0.89,0.37,2.19-0.63,2.69c-0.88,0.16-1.79,0.05-2.68,0.06
			c0.99-1.05,2.38-2.01,2.44-3.59c0.23-2.04-1.78-3.91-3.81-3.55c-1.54,0.18-2.41,1.61-3.47,2.57c0.01-1.75-0.03-3.5,0.02-5.25
			C63.69,30.51,64.37,30.21,64.96,30.17"/>
		<path class="st2" d="M28.13,32.44c0.73-1.69,2.23-3.16,4.14-3.32c0.81-0.22,1.52,0.28,2.22,0.58c4.02,1.84,8.04,3.67,12.06,5.52
			c0.93,0.44,1.94,0.72,2.77,1.34c2.82,1.99,5.66,3.93,8.47,5.92c-0.67,0.53-1.19,1.31-1.87,1.78c-2.63-1.81-5.22-3.69-7.85-5.51
			c-1.12-0.79-2.74-0.79-3.85,0.03c-1.71,1.14-1.85,3.89-0.26,5.19c1.19,0.92,2.46,1.73,3.66,2.63c-1.68,2.31-3.28,4.68-4.68,7.17
			c3.38-0.76,6.75-1.57,10.14-2.33c0.56-0.09,1.18-0.13,1.7,0.15c0.51,0.28,1.15,0.32,1.58,0.74c0.58,0.49,0.97,1.16,1.22,1.87
			c2.29,5.95,4.58,11.89,6.87,17.84c0.53,1.3,0.32,2.88-0.58,3.97c-0.71,0.92-1.84,1.4-2.97,1.6c-1.61-0.09-3.25-1.06-3.83-2.62
			c-1.94-5-3.84-10.02-5.8-15.01c-4.14,1.01-8.32,1.91-12.47,2.9c-1.48,0.35-2.94-0.29-4.27-0.87c-1.59-0.7-3.16-1.72-3.94-3.32
			c-0.81-1.67-0.69-3.66-0.12-5.39c-2.17-0.65-4.36-1.23-6.46-2.05c-1.39-0.54-2.16-2.25-1.6-3.64c1.58-4.31,3.18-8.61,4.82-12.9
			c2.84-0.2,5.72,0.07,8.51,0.63C33.44,33.88,30.8,32.99,28.13,32.44"/>
		<path class="st2" d="M65.86,35.27c0.96-0.96,2.66-0.91,3.59,0.08c1.01,0.97,0.99,2.74-0.04,3.7c-3.7,3.76-7.38,7.53-11.06,11.3
			c-0.82,0.97-2.36,1.2-3.41,0.47c-3.4-2.38-6.79-4.79-10.18-7.18c-0.75-0.51-1.23-1.39-1.15-2.3c0.01-1.31,1.2-2.46,2.51-2.45
			c0.67-0.05,1.3,0.26,1.83,0.65c2.7,1.92,5.41,3.82,8.11,5.74C59.33,41.95,62.57,38.59,65.86,35.27"/>
		<path class="st2" d="M72.56,39.2c0.17,0.13,0.33,0.26,0.5,0.39c0.95-0.01,1.91-0.01,2.86,0c-0.07,0.86-0.48,1.72-1.26,2.16
			c-4.43,2.51-8.89,4.98-13.33,7.48c-0.38,0.23-0.81,0.36-1.24,0.43c2.55-2.65,5.14-5.26,7.72-7.88c1.14-0.02,2.29,0.05,3.42-0.04
			C72.35,41.47,72.7,40.21,72.56,39.2"/>
		<path class="st2" d="M38.94,63.6c1.67-0.38,3.35-0.75,5.02-1.17c1.59,2.99,3.1,6.02,4.64,9.04c0.92,1.74,0.21,4.06-1.45,5.07
			c-1.12,0.76-2.52,0.62-3.8,0.63c-5.31,0-10.62,0-15.93,0c-0.86-0.01-1.74,0.04-2.58-0.21c-1.48-0.47-2.56-1.86-2.72-3.4v-0.73
			c0.17-1.97,1.94-3.63,3.92-3.62c4.17,0,8.35,0.01,12.52-0.01c-1.06-1.99-2.05-4.02-3.09-6.01C36.57,63.61,37.77,63.87,38.94,63.6"
			/>
	</g>
</g>
</svg>
