<?xml version="1.0" encoding="utf-8"?>
<!-- Generator: Adobe Illustrator 25.0.0, SVG Export Plug-In . SVG Version: 6.00 Build 0)  -->
<svg version="1.1" id="Calque_1" xmlns="http://www.w3.org/2000/svg" xmlns:xlink="http://www.w3.org/1999/xlink" x="0px" y="0px"
	 viewBox="0 0 300 300" style="enable-background:new 0 0 300 300;" xml:space="preserve">
<style type="text/css">
	.st0{fill:#F39200;}
</style>
<g>
	<path class="st0" d="M150.13,1.66L150.13,1.66C68.21,1.66,1.8,68.08,1.8,150s66.41,148.34,148.34,148.34h0
		c81.92,0,148.34-66.41,148.34-148.34S232.06,1.66,150.13,1.66z M212.99,117.76c2.05,45.61-31.97,96.47-92.18,96.47
		c-18.31,0-35.36-5.37-49.71-14.57c17.2,2.03,34.38-2.74,48.01-13.43c-14.19-0.26-26.17-9.63-30.29-22.52
		c5.07,0.97,10.07,0.69,14.64-0.55c-15.6-3.13-26.36-17.18-26.01-32.21c4.37,2.43,9.38,3.89,14.69,4.06
		c-14.44-9.65-18.53-28.72-10.04-43.3c15.99,19.62,39.89,32.54,66.84,33.89c-4.73-20.29,10.66-39.82,31.59-39.82
		c9.33,0,17.76,3.94,23.68,10.24c7.38-1.46,14.32-4.16,20.59-7.87c-2.42,7.58-7.56,13.93-14.25,17.94
		c6.55-0.78,12.81-2.53,18.62-5.1C224.82,107.48,219.32,113.19,212.99,117.76z"/>
</g>
</svg>
