<svg id="Calque_1" data-name="Calque 1" xmlns="http://www.w3.org/2000/svg" viewBox="0 0 264.21 252.25"><defs><style>.cls-1{fill:#f39204;}</style></defs><path class="cls-1" d="M140.13,123.93a9.14,9.14,0,0,1,3.56-.44,4.65,4.65,0,0,1,2.45.81,4.07,4.07,0,0,1,1.42,1.92,9,9,0,0,1,.45,3.27,12.44,12.44,0,0,1-1.27,4.88,32,32,0,0,1-2.36,4.2c-1.07,1.64-2.25,3.21-3.46,4.75-.91,1.14-1.85,2.24-2.87,3.29a20.81,20.81,0,0,1-3.56,3,8.84,8.84,0,0,1-2.82,1.26,3.85,3.85,0,0,1-2.13-.05,4.37,4.37,0,0,1-1.93-1.53,13.12,13.12,0,0,1-1.69-3.18,8.62,8.62,0,0,1-.29-1l-1.92-7a30.21,30.21,0,0,0-1.61-4.9,5.28,5.28,0,0,0-1-1.43,1.31,1.31,0,0,0-1-.44,2,2,0,0,0-.57.24c-.66.38-1.28.82-1.91,1.25l-1.5-1.93,3.73-3.31a25,25,0,0,1,3.61-2.87,5.55,5.55,0,0,1,1.87-.8,3.63,3.63,0,0,1,2.31.39,4,4,0,0,1,1.51,1.67,9.78,9.78,0,0,1,.86,2.75c.37,2.26.71,4.54,1.16,6.79a29.78,29.78,0,0,0,.88,3.37,6,6,0,0,0,.88,1.8.94.94,0,0,0,.91.43,2.3,2.3,0,0,0,1-.68,13.55,13.55,0,0,0,1.54-2,24.88,24.88,0,0,0,1.54-2.64,8.57,8.57,0,0,0,.87-2.39,3.67,3.67,0,0,0-.13-1.89,1.64,1.64,0,0,0-.9-.89,3.54,3.54,0,0,0-1.74-.14,6.09,6.09,0,0,0-1.7.48,13.25,13.25,0,0,1,2.41-4.71A7.55,7.55,0,0,1,140.13,123.93Z"/></svg>