<?xml version="1.0" encoding="utf-8"?>
<!-- Generator: Adobe Illustrator 25.0.0, SVG Export Plug-In . SVG Version: 6.00 Build 0)  -->
<svg version="1.1" id="Calque_1" xmlns="http://www.w3.org/2000/svg" xmlns:xlink="http://www.w3.org/1999/xlink" x="0px" y="0px"
	 viewBox="0 0 300 300" style="enable-background:new 0 0 300 300;" xml:space="preserve">
<style type="text/css">
	.st0{fill:#F39200;}
</style>
<g>
	<path class="st0" d="M149.91,1.66C67.99,1.66,1.58,68.08,1.58,150v0c0,81.92,66.41,148.34,148.34,148.34S298.25,231.92,298.25,150
		v0C298.25,68.08,231.84,1.66,149.91,1.66z M234.22,110.89c-0.75,16.39-12.19,38.82-34.31,67.29
		c-22.88,29.74-42.23,44.61-58.06,44.61c-9.81,0-18.11-9.05-24.88-27.16c-4.53-16.61-9.06-33.21-13.59-49.82
		c-5.04-18.11-10.43-27.18-16.21-27.18c-1.25,0-5.66,2.66-13.2,7.93l-7.92-10.2c8.31-7.3,16.49-14.6,24.55-21.91
		c11.08-9.57,19.39-14.6,24.94-15.11c13.09-1.26,21.15,7.69,24.18,26.86c3.27,20.68,5.53,33.54,6.8,38.57
		c3.77,17.16,7.92,25.72,12.46,25.72c3.52,0,8.81-5.56,15.86-16.69c7.05-11.14,10.82-19.6,11.32-25.41
		c1.01-9.61-2.77-14.43-11.32-14.43c-4.03,0-8.19,0.93-12.46,2.76c8.28-27.1,24.07-40.26,47.39-39.51
		C227.07,77.75,235.22,88.96,234.22,110.89z"/>
</g>
</svg>
