<?xml version="1.0" encoding="utf-8"?>
<!-- Generator: Adobe Illustrator 25.0.0, SVG Export Plug-In . SVG Version: 6.00 Build 0)  -->
<svg version="1.1" id="Calque_1" xmlns="http://www.w3.org/2000/svg" xmlns:xlink="http://www.w3.org/1999/xlink" x="0px" y="0px"
	 viewBox="0 0 300 300" style="enable-background:new 0 0 300 300;" xml:space="preserve">
<style type="text/css">
	.st0{fill:#F39200;}
</style>
<g>
	<g>
		<path class="st0" d="M150,1.66C68.08,1.66,1.66,68.08,1.66,150v0c0,81.92,66.41,148.34,148.34,148.34
			c81.92,0,148.34-66.41,148.34-148.34v0C298.34,68.08,231.92,1.66,150,1.66z M263.76,207.52c-2.73,10.28-10.78,18.38-20.99,21.13
			c-18.52,4.99-92.76,4.99-92.76,4.99s-74.25,0-92.76-4.99c-10.22-2.75-18.26-10.85-20.99-21.13C31.28,188.88,31.28,150,31.28,150
			s0-38.88,4.96-57.52C38.98,82.2,47.02,74.1,57.24,71.35C75.75,66.36,150,66.36,150,66.36s74.25,0,92.76,4.99
			c10.22,2.75,18.26,10.85,20.99,21.13c4.96,18.64,4.96,57.52,4.96,57.52S268.72,188.88,263.76,207.52z"/>
		<polygon class="st0" points="125.72,185.3 187.77,150 125.72,114.7 		"/>
	</g>
</g>
</svg>
